<?xml version="1.0" encoding="UTF-8" standalone="no"?>
<!-- Generator: Adobe Illustrator 19.0.0, SVG Export Plug-In . SVG Version: 6.00 Build 0)  -->

<svg
   version="1.1"
   id="Layer_1"
   x="0px"
   y="0px"
   viewBox="0 0 204.4 30.9"
   style="enable-background:new 0 0 204.4 30.9;"
   xml:space="preserve"
   sodipodi:docname="audio.svg"
   inkscape:version="1.3 (0e150ed6c4, 2023-07-21)"
   xmlns:inkscape="http://www.inkscape.org/namespaces/inkscape"
   xmlns:sodipodi="http://sodipodi.sourceforge.net/DTD/sodipodi-0.dtd"
   xmlns="http://www.w3.org/2000/svg"
   xmlns:svg="http://www.w3.org/2000/svg"><defs
   id="defs1" /><sodipodi:namedview
   id="namedview1"
   pagecolor="#ffffff"
   bordercolor="#000000"
   borderopacity="0.25"
   inkscape:showpageshadow="2"
   inkscape:pageopacity="0.0"
   inkscape:pagecheckerboard="0"
   inkscape:deskcolor="#d1d1d1"
   inkscape:zoom="9.7504895"
   inkscape:cx="102.2"
   inkscape:cy="15.486402"
   inkscape:window-width="2560"
   inkscape:window-height="1011"
   inkscape:window-x="0"
   inkscape:window-y="0"
   inkscape:window-maximized="1"
   inkscape:current-layer="Layer_1" />&#10;<g
   id="XMLID_4_"
   style="fill:#000080">&#10;	<path
   id="XMLID_6_"
   d="M12.9,31H5.7c0,0-1.8-0.7-3-9.7C1.8,13.6,0,5,0,5s0.2-1.8,1.5-3.3s2.2-2,3.1-1.6s2,2.3,3.4,9.4   S9.6,22.3,10.5,26C11.3,29.1,12.3,30.3,12.9,31z"
   style="fill:#5b78bd;fill-opacity:1" />&#10;</g>&#10;<g
   id="XMLID_9_">&#10;	<path
   id="XMLID_11_"
   d="M11.7,25.5c0,0,0.5,2.6,1.6,4.2s2.7,1.6,3.9,0.4s2.2-5.1,3.6-14.5c1.4-9.4,1.9-10.8,2.7-12.5S25.6,0,25.6,0   h-6.7c0,0-2.7,2.4-3.9,8.7S12.7,22,12.6,22.6C12.1,25,11.7,25.5,11.7,25.5z"
   style="fill:#5b78bd;fill-opacity:1" />&#10;	<path
   id="XMLID_17_"
   d="M35.4,25.5c0,0,0.5,2.6,1.6,4.2s2.7,1.6,3.9,0.4c1.2-1.3,2.2-5.1,3.6-14.5s1.9-10.8,2.7-12.5S49.3,0,49.3,0   h-6.7c0,0-2.7,2.4-3.9,8.7c-1.2,6.4-2.2,13.2-2.3,13.9C35.9,25,35.4,25.5,35.4,25.5z"
   style="fill:#5b78bd;fill-opacity:1" />&#10;	<path
   id="XMLID_20_"
   d="M59.3,25.5c0,0,0.5,2.6,1.6,4.2s2.7,1.6,3.9,0.4c1.2-1.3,2.2-5.1,3.6-14.5s1.9-10.8,2.7-12.5   C71.8,1.4,73.2,0,73.2,0h-6.7c0,0-2.7,2.4-3.9,8.7c-1.2,6.4-2.2,13.2-2.3,13.9C59.7,25,59.3,25.5,59.3,25.5z"
   style="fill:#5b78bd;fill-opacity:1" />&#10;	<path
   id="XMLID_23_"
   d="M83.2,25.5c0,0,0.5,2.6,1.6,4.2c1.1,1.6,2.7,1.6,3.9,0.4s2.2-5.1,3.6-14.5s1.9-10.8,2.7-12.5   C95.7,1.4,97.1,0,97.1,0h-6.7c0,0-2.7,2.4-3.9,8.7S84.2,22,84.1,22.6C83.6,25,83.2,25.5,83.2,25.5z"
   style="fill:#ffffff" />&#10;	<path
   id="XMLID_26_"
   d="M106.9,25.5c0,0,0.5,2.6,1.6,4.2c1.1,1.6,2.7,1.6,3.9,0.4s2.2-5.1,3.6-14.5s1.9-10.8,2.7-12.5   c0.8-1.7,2.1-3.1,2.1-3.1h-6.7c0,0-2.7,2.4-3.9,8.7S108,22,107.8,22.6C107.4,25,106.9,25.5,106.9,25.5z"
   style="fill:#ffffff" />&#10;	<path
   id="XMLID_29_"
   d="M130.9,25.5c0,0,0.5,2.6,1.6,4.2c1.1,1.6,2.7,1.6,3.9,0.4s2.2-5.1,3.6-14.5s1.9-10.8,2.7-12.5   c0.8-1.7,2.1-3.1,2.1-3.1h-6.7c0,0-2.7,2.4-3.9,8.7c-1.2,6.4-2.2,13.2-2.3,13.9C131.4,25,130.9,25.5,130.9,25.5z"
   style="fill:#ffffff" />&#10;	<path
   id="XMLID_104_"
   d="M154.9,25.5c0,0,0.5,2.6,1.6,4.2c1.1,1.6,2.7,1.6,3.9,0.4s2.2-5.1,3.6-14.5s1.9-10.8,2.7-12.5   c0.8-1.7,2.1-3.1,2.1-3.1h-6.7c0,0-2.7,2.4-3.9,8.7c-1.2,6.4-2.2,13.2-2.3,13.9C155.4,25,154.9,25.5,154.9,25.5z"
   style="fill:#ffffff" />&#10;	<path
   id="XMLID_10_"
   d="M36.8,31h-7.2c0,0-1.8-0.7-3-9.7C25.6,13.6,23.9,5,23.9,5s0.2-1.8,1.5-3.3c1.3-1.6,2.2-2,3.1-1.6   s2,2.3,3.4,9.4c1.4,7.1,1.6,12.8,2.5,16.5C35.2,29.1,36.2,30.3,36.8,31z"
   style="fill:#5b78bd;fill-opacity:1" />&#10;</g>&#10;<g
   id="XMLID_15_">&#10;	<path
   id="XMLID_16_"
   d="M60.6,31h-7.2c0,0-1.8-0.7-3-9.7C49.5,13.6,47.7,5,47.7,5s0.2-1.8,1.5-3.3c1.3-1.6,2.2-2,3.1-1.6   c0.9,0.4,2,2.3,3.4,9.4s1.6,12.8,2.5,16.5C59,29.1,60.1,30.3,60.6,31z"
   style="fill:#5b78bd;fill-opacity:1" />&#10;</g>&#10;<g
   id="XMLID_12_">&#10;	<path
   id="XMLID_13_"
   d="M84.5,31h-7.2c0,0-1.8-0.7-3-9.7C73.3,13.6,71.6,5,71.6,5s0.2-1.8,1.5-3.3c1.3-1.6,2.2-2,3.1-1.6   s2,2.3,3.4,9.4s1.6,12.8,2.5,16.5C82.9,29.1,83.9,30.3,84.5,31z"
   style="fill:#ffffff" />&#10;</g>&#10;<g
   id="XMLID_27_">&#10;	<path
   id="XMLID_28_"
   d="M108.4,31h-7.2c0,0-1.8-0.7-3-9.7C97.3,13.6,95.5,5,95.5,5s0.2-1.8,1.5-3.3c1.3-1.6,2.2-2,3.1-1.6   s2,2.3,3.4,9.4s1.6,12.8,2.5,16.5C106.8,29.1,107.8,30.3,108.4,31z"
   style="fill:#ffffff" />&#10;</g>&#10;<g
   id="XMLID_24_">&#10;	<path
   id="XMLID_25_"
   d="M132.3,31h-7.2c0,0-1.8-0.7-3-9.7c-1-7.8-2.8-16.3-2.8-16.3s0.2-1.8,1.5-3.3s2.2-2,3.1-1.6s2,2.3,3.4,9.4   c1.4,7.1,1.6,12.8,2.5,16.5C130.7,29.1,131.7,30.3,132.3,31z"
   style="fill:#ffffff" />&#10;</g>&#10;<g
   id="XMLID_21_">&#10;	<path
   id="XMLID_22_"
   d="M156.1,31H149c0,0-1.8-0.7-3-9.7c-1-7.8-2.8-16.3-2.8-16.3s0.2-1.8,1.5-3.3s2.2-2,3.1-1.6   c0.9,0.4,2,2.3,3.4,9.4s1.6,12.8,2.5,16.5C154.5,29.1,155.6,30.3,156.1,31z"
   style="fill:#ffffff" />&#10;</g>&#10;<g
   id="XMLID_18_">&#10;	<path
   id="XMLID_19_"
   d="M180,31h-7.2c0,0-1.8-0.7-3-9.7c-1-7.8-2.8-16.3-2.8-16.3s0.2-1.8,1.5-3.3s2.2-2,3.1-1.6   c0.9,0.4,2,2.3,3.4,9.4s1.6,12.8,2.5,16.5C178.4,29.1,179.4,30.3,180,31z"
   style="fill:#ffffff" />&#10;</g>&#10;<path
   id="XMLID_7_"
   d="M178.6,25.5c0,0,0.5,2.8,1.9,4.5c1.4,1.7,3.7,0.4,4.5-1.6s1.6-7.3,2.4-10.4c0.8-3.1,2.5-5,5.5-6  c2.6-0.9,4.7-0.9,6.7-0.8c1.7,0.1,3.2,0.8,3.2,0.8l1.5-5.3c0,0-6.8-2-12.4-0.9s-7.7,4-9.9,7.5c-2.2,3.5-2.2,6.6-2.6,8.5  C179.2,23.8,179,24.6,178.6,25.5z"
   style="fill:#ffffff" />&#10;</svg>
