<?xml version="1.0" encoding="UTF-8" standalone="no"?>
<!-- Created with Inkscape (http://www.inkscape.org/) -->

<svg
   width="120"
   height="120"
   viewBox="0 0 120 120"
   version="1.1"
   id="svg1"
   inkscape:version="1.3 (0e150ed6c4, 2023-07-21)"
   sodipodi:docname="quotes.svg"
   xmlns:inkscape="http://www.inkscape.org/namespaces/inkscape"
   xmlns:sodipodi="http://sodipodi.sourceforge.net/DTD/sodipodi-0.dtd"
   xmlns="http://www.w3.org/2000/svg"
   xmlns:svg="http://www.w3.org/2000/svg">
  <sodipodi:namedview
     id="namedview1"
     pagecolor="#ffffff"
     bordercolor="#000000"
     borderopacity="0.25"
     inkscape:showpageshadow="2"
     inkscape:pageopacity="0.0"
     inkscape:pagecheckerboard="0"
     inkscape:deskcolor="#d1d1d1"
     inkscape:document-units="px"
     inkscape:zoom="3.2083333"
     inkscape:cx="50.961039"
     inkscape:cy="57.35065"
     inkscape:window-width="2560"
     inkscape:window-height="1011"
     inkscape:window-x="0"
     inkscape:window-y="0"
     inkscape:window-maximized="1"
     inkscape:current-layer="XMLID_2_" />
  <defs
     id="defs1" />
  <g
     inkscape:label="Layer 1"
     inkscape:groupmode="layer"
     id="layer1">
    <g
       id="XMLID_2_"
       transform="matrix(7.5510628,0,0,9.7231747,-427.2519,-363.25468)">
      <path
         id="XMLID_1_"
         d="m 56.7,49.6 c 0,0 -0.3,-3.9 0.5,-6.4 0.8,-2.5 1.5,-3.2 2.3,-4.3 0.8,-1.1 1.5,-1.5 1.5,-1.5 l 3.2,1.9 c 0,0 -1.4,2.7 -1.6,3.7 -0.2,1 -0.4,2 -0.4,4.1 0,2.1 0,2.6 0,2.6 h -5.5 z"
         style="fill:#ffffff" />
      <path
         id="XMLID_3_"
         d="m 64.8,49.6 v -3.8 c 0,0 0,-1.3 0.6,-2.8 0.5,-1.2 1.2,-2.8 2.1,-3.9 0.9,-1.2 1.7,-1.7 1.7,-1.7 l 3.2,1.9 c 0,0 -1.2,2.3 -1.6,3.5 -0.3,1.2 -0.4,2.6 -0.4,4.3 0,1.7 0,2.6 0,2.6 h -5.6 z"
         style="fill:#ffffff" />
    </g>
  </g>
</svg>
